<svg>
    <defs id="SvgjsDefs1001"></defs>
    <g id="SvgjsG1007" featurekey="symbolFeature-0"
        transform="matrix(0.5203545359915328,0,0,0.5203545359915328,-22.034935515451597,-18.733279394401837)"
        fill="#00ab55">
        <g xmlns="http://www.w3.org/2000/svg">
            <path
                d="M94.532,112.865c-0.539-0.227-1.052-0.496-1.554-0.785c-1.057-0.609-2.037-1.341-2.912-2.212   c-1.289-1.284-2.301-2.777-3.006-4.44c-0.729-1.717-1.1-3.543-1.1-5.428s0.37-3.711,1.101-5.43   c0.704-1.661,1.716-3.154,3.005-4.438c0.876-0.872,1.855-1.605,2.912-2.213c0.501-0.289,1.014-0.558,1.552-0.784   c2.035-0.856,2.992-3.202,2.135-5.238c-0.855-2.036-3.199-2.995-5.238-2.135c-2.624,1.104-4.98,2.686-7.005,4.702   c-2.025,2.017-3.615,4.365-4.725,6.98c-1.152,2.712-1.736,5.591-1.736,8.556s0.584,5.844,1.735,8.555   c1.11,2.616,2.7,4.965,4.726,6.981c2.022,2.014,4.379,3.596,7.004,4.702c0.507,0.213,1.033,0.314,1.551,0.314   c1.562,0,3.044-0.919,3.688-2.448C97.522,116.068,96.567,113.723,94.532,112.865z" />
            <path
                d="M115.579,84.465c-2.021-2.015-4.379-3.598-7.008-4.703c-2.031-0.856-4.381,0.1-5.238,2.135   c-0.855,2.036,0.1,4.382,2.137,5.238c0.538,0.226,1.051,0.495,1.552,0.784c1.057,0.608,2.037,1.342,2.911,2.214   c1.289,1.282,2.301,2.776,3.008,4.438c0.729,1.717,1.098,3.544,1.098,5.43s-0.369,3.713-1.098,5.427   c-0.707,1.664-1.719,3.158-3.01,4.442c-0.872,0.87-1.851,1.603-2.909,2.212c-0.501,0.288-1.015,0.558-1.554,0.784   c-2.035,0.857-2.99,3.203-2.133,5.239c0.643,1.529,2.127,2.448,3.688,2.448c0.518,0,1.045-0.102,1.551-0.314   c2.629-1.108,4.986-2.69,7.004-4.701c2.021-2.013,3.613-4.361,4.727-6.982c1.15-2.711,1.734-5.589,1.734-8.555   s-0.584-5.844-1.734-8.558C119.19,88.824,117.599,86.476,115.579,84.465z" />
            <path
                d="M146.647,110.11V89.89c2.472-0.678,4.742-1.972,6.605-3.827c2.838-2.826,4.4-6.585,4.4-10.583   c0-3.997-1.563-7.755-4.4-10.584c-2.834-2.821-6.6-4.375-10.605-4.375c-3.965,0-7.694,1.528-10.518,4.298l-17.612-10.126   c0.31-1.207,0.487-2.455,0.487-3.733c0-3.997-1.563-7.755-4.4-10.584c-2.834-2.821-6.6-4.375-10.605-4.375   c-4.004,0-7.77,1.554-10.604,4.376c-2.837,2.826-4.399,6.585-4.399,10.583c0,1.278,0.177,2.526,0.486,3.733L67.87,64.818   c-2.824-2.769-6.552-4.297-10.518-4.297c-4.005,0-7.771,1.554-10.604,4.375c-2.838,2.826-4.401,6.585-4.401,10.584   c0,4.001,1.563,7.76,4.4,10.583c1.862,1.855,4.133,3.149,6.604,3.827v20.22c-2.472,0.678-4.741,1.971-6.604,3.825   c-2.838,2.826-4.401,6.585-4.401,10.585c0,3.999,1.563,7.758,4.4,10.583c2.833,2.822,6.6,4.376,10.604,4.376   c3.965,0,7.693-1.527,10.518-4.297l17.612,10.126c-0.31,1.206-0.486,2.455-0.486,3.733c0,3.998,1.563,7.757,4.4,10.584   c2.834,2.821,6.6,4.375,10.604,4.375c4.006,0,7.771-1.554,10.607-4.377c2.836-2.827,4.398-6.585,4.398-10.582   c0-1.278-0.177-2.527-0.487-3.733l17.612-10.126c2.824,2.77,6.553,4.298,10.518,4.298c4.006,0,7.773-1.555,10.604-4.375   c2.838-2.827,4.402-6.585,4.402-10.584s-1.564-7.758-4.402-10.584C151.389,112.082,149.12,110.788,146.647,110.11z    M147.604,129.437c-2.643,2.635-7.266,2.637-9.916-0.002c-1.318-1.313-2.045-3.058-2.045-4.914s0.727-3.603,2.045-4.915   c1.324-1.318,3.086-2.044,4.959-2.044c1.875,0,3.637,0.726,4.959,2.044c1.32,1.313,2.047,3.06,2.047,4.915   S148.927,128.121,147.604,129.437z M95.04,153.956c-1.318-1.313-2.045-3.06-2.045-4.915c0-1.856,0.727-3.603,2.045-4.915   c1.324-1.318,3.086-2.045,4.959-2.045c1.875,0,3.637,0.727,4.959,2.043c1.32,1.315,2.047,3.062,2.047,4.917   c0,1.854-0.727,3.601-2.045,4.914C102.315,156.591,97.69,156.594,95.04,153.956z M99.999,134.081   c-3.963,0-7.691,1.528-10.518,4.298L71.87,128.254c0.31-1.207,0.487-2.455,0.487-3.733c0-3.999-1.563-7.758-4.401-10.585   c-1.863-1.854-4.132-3.147-6.604-3.825V89.89c2.472-0.678,4.741-1.972,6.604-3.826c2.838-2.825,4.4-6.584,4.4-10.584   c0-1.278-0.177-2.526-0.487-3.733L89.481,61.62c2.824,2.769,6.552,4.297,10.518,4.297c3.964,0,7.692-1.528,10.52-4.297   l17.611,10.125c-0.31,1.206-0.486,2.455-0.486,3.733c0,4.001,1.563,7.76,4.4,10.584c1.863,1.854,4.132,3.148,6.604,3.826v20.221   c-2.47,0.678-4.74,1.971-6.604,3.825c-2.838,2.825-4.4,6.585-4.4,10.585c0,1.278,0.177,2.526,0.486,3.733l-17.611,10.125   C107.692,135.609,103.964,134.081,99.999,134.081z M52.393,129.435c-1.319-1.313-2.046-3.059-2.046-4.914   c0-1.856,0.727-3.602,2.046-4.915c1.323-1.318,3.085-2.044,4.959-2.044s3.636,0.726,4.959,2.043   c1.319,1.313,2.046,3.06,2.046,4.916c0,1.855-0.727,3.602-2.045,4.914C59.663,132.071,55.041,132.073,52.393,129.435z    M50.347,75.479c0-1.855,0.727-3.601,2.047-4.915c1.323-1.318,3.084-2.044,4.958-2.044s3.636,0.727,4.959,2.044   c1.319,1.313,2.046,3.06,2.046,4.915c0,1.856-0.727,3.602-2.045,4.914c-2.648,2.637-7.27,2.639-9.92,0   C51.073,79.081,50.347,77.336,50.347,75.479z M99.999,44c1.875,0,3.637,0.727,4.959,2.043c1.32,1.315,2.047,3.062,2.047,4.916   c0,1.855-0.727,3.602-2.045,4.915c-2.645,2.637-7.27,2.638-9.92,0.001c-1.318-1.313-2.045-3.06-2.045-4.916   c0-1.855,0.727-3.602,2.045-4.914C96.364,44.727,98.126,44,99.999,44z M142.647,68.521c1.875,0,3.637,0.727,4.959,2.043   c1.32,1.315,2.047,3.062,2.047,4.916c0,1.855-0.727,3.602-2.045,4.914c-2.646,2.637-7.27,2.639-9.92,0   c-1.318-1.313-2.045-3.058-2.045-4.914s0.727-3.602,2.045-4.914C139.013,69.247,140.774,68.521,142.647,68.521z" />
        </g>
    </g>
</svg>