<svg height="36.61606017521774" width="355.25032117756234"
    style="width: 355.25px; height: 36.6161px; position: absolute; top: 50%; left: 50%; transform: translate(-50%, -50%) scale(1); z-index: 0; cursor: pointer;">
    <defs id="SvgjsDefs1001"></defs>
    <g id="SvgjsG1007" featurekey="5TMTKC-0"
        transform="matrix(11.683491456729723,0,0,11.683491456729723,-10.900698554215438,-10.900698554215438)"
        fill="#ffab00">
        <title xmlns="http://www.w3.org/2000/svg">maze</title>
        <g xmlns="http://www.w3.org/2000/svg">
            <polygon
                points="2.77 1.478 3.325 1.478 3.325 1.285 2.964 1.285 2.964 0.933 2.395 0.933 2.395 1.126 2.77 1.126 2.77 1.478">
            </polygon>
            <polygon
                points="2.396 1.93 2.59 1.93 2.59 1.361 2.237 1.361 2.237 1 2.044 1 2.044 1.555 2.396 1.555 2.396 1.93">
            </polygon>
            <polygon
                points="3.164 2.205 3.358 2.205 3.358 1.845 3.71 1.845 3.71 1.276 3.516 1.276 3.516 1.651 3.164 1.651 3.164 2.205">
            </polygon>
            <polygon
                points="2.763 2.059 2.413 2.059 2.403 2.498 2.597 2.502 2.603 2.253 2.957 2.253 2.957 1.684 2.763 1.684 2.763 2.059">
            </polygon>
            <polygon
                points="4.067 2.395 3.874 2.395 3.874 2.77 3.522 2.77 3.522 3.325 3.715 3.325 3.715 2.964 4.067 2.964 4.067 2.395">
            </polygon>
            <polygon
                points="3.513 2.396 3.07 2.396 3.07 2.59 3.707 2.59 3.707 2.237 4 2.237 4 2.044 3.513 2.044 3.513 2.396">
            </polygon>
            <polygon
                points="3.724 3.71 3.724 3.516 3.349 3.516 3.349 3.083 2.795 3.083 2.795 3.277 3.155 3.277 3.155 3.71 3.724 3.71">
            </polygon>
            <polygon points="2.747 2.503 2.747 2.942 3.316 2.942 3.316 2.748 2.941 2.748 2.941 2.503 2.747 2.503">
            </polygon>
            <polygon
                points="2.605 4.067 2.605 3.874 2.23 3.874 2.23 3.522 1.675 3.522 1.675 3.715 2.036 3.715 2.036 4.067 2.605 4.067">
            </polygon>
            <polygon
                points="2.956 4 2.956 3.445 2.604 3.445 2.604 3.07 2.41 3.07 2.41 3.639 2.763 3.639 2.763 4 2.956 4">
            </polygon>
            <polygon
                points="1.484 3.349 1.836 3.349 1.836 2.795 1.642 2.795 1.642 3.155 1.29 3.155 1.29 3.724 1.484 3.724 1.484 3.349">
            </polygon>
            <polygon points="2.043 3.316 2.237 3.316 2.237 2.876 2.6 2.876 2.6 2.682 2.043 2.682 2.043 3.316"></polygon>
            <polygon
                points="1.126 2.23 1.497 2.23 1.497 1.675 1.304 1.675 1.304 2.036 0.933 2.036 0.933 2.605 1.126 2.605 1.126 2.23">
            </polygon>
            <polygon
                points="1.304 2.763 1 2.763 1 2.956 1.497 2.956 1.497 2.604 1.93 2.604 1.93 2.41 1.304 2.41 1.304 2.763">
            </polygon>
            <polygon
                points="1.651 1.909 2.205 1.909 2.205 1.716 1.845 1.716 1.845 1.29 1.276 1.29 1.276 1.484 1.651 1.484 1.651 1.909">
            </polygon>
            <polygon points="1.684 2.237 2.059 2.237 2.059 2.492 2.253 2.492 2.253 2.043 1.684 2.043 1.684 2.237">
            </polygon>
        </g>
    </g>
    <g id="SvgjsG1008" featurekey="nameLeftFeature-0"
        transform="matrix(1.011493406982875,0,0,1.011493406982875,56.04919613955798,5.67954444775761)" fill="#ffab00">
        <path
            d="M0.94 19.5 l4.66 -14 l1.04 0 l-3.04 9.26 l3.44 0 l0.36 1 l-4.14 0 l-1.26 3.74 l-1.06 0 z M10.76 19.5 l-3.6 -10.8 l-1.86 5.56 l-1.06 0 l2.96 -8.76 l4.6 14 l-1.04 0 z M9.14 19.5 l-0.74 -2.24 l-3.76 0 l-0.7 -1 l4.16 0 l-1.46 -4.46 l0.52 -1.54 l3.08 9.24 l-1.1 0 z M3.56 19.5 l-1.06 0 l1.06 -3 l0.64 1 z M17.240000000000002 15.4 c0 1.04 0.74 1.86 1.76 1.86 c0.98 0 1.74 -0.82 1.74 -1.86 l0 -0.24 c0 -1.12 -0.76 -1.9 -1.74 -1.9 c-2.32 0 -4.02 -1.7 -4.02 -3.9 l0 -0.26 c0 -2.2 1.7 -3.84 4.02 -3.84 c2.28 0 3.98 1.64 3.98 3.84 l-0.98 0 c0 -1.6 -1.32 -2.86 -3 -2.86 c-1.72 0 -3 1.26 -3 2.86 l0 0.26 c0 1.64 1.28 2.88 3 2.88 c1.54 0 2.74 1.26 2.74 2.92 l0 0.24 c0 1.6 -1.2 2.84 -2.74 2.84 c-1.56 0 -2.76 -1.24 -2.76 -2.84 l1 0 z M19 7.74 c-0.36 0 -0.72 0.12 -0.9 0.26 l-0.76 -0.7 c0.4 -0.3 1.1 -0.54 1.66 -0.54 c1.38 0 2.48 0.98 2.48 2.34 l-0.98 0 c0 -0.76 -0.66 -1.36 -1.5 -1.36 z M17.5 9.36 c0 0.78 0.64 1.38 1.5 1.38 c2.4 0 4.24 1.92 4.24 4.42 l0 0.24 c0 1.16 -0.5 2.2 -1.16 3 l-0.74 -0.7 c0.5 -0.66 0.9 -1.64 0.9 -2.3 l0 -0.24 c0 -1.96 -1.4 -3.4 -3.24 -3.4 c-1.42 0 -2.52 -1.06 -2.52 -2.4 l0 -0.26 c0 -0.46 0.2 -1.1 0.5 -1.44 l0.76 0.74 c-0.16 0.24 -0.24 0.54 -0.24 0.7 l0 0.26 z M15.74 15.4 c0 1.9 1.4 3.36 3.26 3.36 c0.68 0 1.54 -0.3 1.98 -0.7 l0.76 0.74 c-0.64 0.56 -1.8 0.94 -2.74 0.94 c-2.4 0 -4.26 -1.84 -4.26 -4.34 l1 0 z M29.740000000000002 15.4 c0 1.04 0.74 1.86 1.76 1.86 c0.98 0 1.74 -0.82 1.74 -1.86 l0 -0.24 c0 -1.12 -0.76 -1.9 -1.74 -1.9 c-2.32 0 -4.02 -1.7 -4.02 -3.9 l0 -0.26 c0 -2.2 1.7 -3.84 4.02 -3.84 c2.28 0 3.98 1.64 3.98 3.84 l-0.98 0 c0 -1.6 -1.32 -2.86 -3 -2.86 c-1.72 0 -3 1.26 -3 2.86 l0 0.26 c0 1.64 1.28 2.88 3 2.88 c1.54 0 2.74 1.26 2.74 2.92 l0 0.24 c0 1.6 -1.2 2.84 -2.74 2.84 c-1.56 0 -2.76 -1.24 -2.76 -2.84 l1 0 z M31.5 7.74 c-0.36 0 -0.72 0.12 -0.9 0.26 l-0.76 -0.7 c0.4 -0.3 1.1 -0.54 1.66 -0.54 c1.38 0 2.48 0.98 2.48 2.34 l-0.98 0 c0 -0.76 -0.66 -1.36 -1.5 -1.36 z M30 9.36 c0 0.78 0.64 1.38 1.5 1.38 c2.4 0 4.24 1.92 4.24 4.42 l0 0.24 c0 1.16 -0.5 2.2 -1.16 3 l-0.74 -0.7 c0.5 -0.66 0.9 -1.64 0.9 -2.3 l0 -0.24 c0 -1.96 -1.4 -3.4 -3.24 -3.4 c-1.42 0 -2.52 -1.06 -2.52 -2.4 l0 -0.26 c0 -0.46 0.2 -1.1 0.5 -1.44 l0.76 0.74 c-0.16 0.24 -0.24 0.54 -0.24 0.7 l0 0.26 z M28.240000000000002 15.4 c0 1.9 1.4 3.36 3.26 3.36 c0.68 0 1.54 -0.3 1.98 -0.7 l0.76 0.74 c-0.64 0.56 -1.8 0.94 -2.74 0.94 c-2.4 0 -4.26 -1.84 -4.26 -4.34 l1 0 z M46.74 11.5 l0 1 l-5.5 0 l0 4.5 l6.5 0 l0 1 l-7.5 0 l0 -12.5 l7.5 0 l0 1 l-6.5 0 l0 5 l5.5 0 z M47.74 8 l-4.6 0 l-1.06 -1 l5.66 0 l0 1 z M41.74 7.359999999999999 l1 0.98 l0 2.66 l-1 0 l0 -3.64 z M46.74 14 l-3.6 0 l-1.06 -1 l4.66 0 l0 1 z M41.74 13.36 l1 0.98 l0 2.16 l-1 0 l0 -3.14 z M47.74 19.5 l-7.5 0 l0 -1 l7.5 0 l0 1 z M60.74 6.5 l-5 0 l0 13 l-1 0 l0 -13 l-3.5 0 l0 -1 l9.5 0 l0 1 z M54.24 8 l-3 0 l0 -1 l3 0 l0 1 z M60.74 8 l-3.16 0 l-0.98 -1 l4.14 0 l0 1 z M57.24 19.5 l-1 0 l0 -12.14 l1 1.04 l0 11.1 z M79.88000000000001 16.66 l-4.14 -7.42 l0 10.26 l-1 0 l0 -14 l6.3 11.16 l-1.16 0 z M86.24000000000001 19.5 l-1 0 l0 -10.26 l-3.9 6.9 l-6 -10.64 l1.14 0 l4.86 8.66 l4.9 -8.66 l0 14 z M84.50000000000001 5.5 l1.14 0 l-4.3 7.6 l-0.56 -0.94 z M77.24000000000001 19.5 l-1 0 l0 -8.34 l1 1.74 l0 6.6 z M83.74000000000001 19.5 l0 -6.6 l1 -1.74 l0 8.34 l-1 0 z M89.68 19.5 l4.66 -14 l1.04 0 l-3.04 9.26 l3.44 0 l0.36 1 l-4.14 0 l-1.26 3.74 l-1.06 0 z M99.50000000000001 19.5 l-3.6 -10.8 l-1.86 5.56 l-1.06 0 l2.96 -8.76 l4.6 14 l-1.04 0 z M97.88000000000001 19.5 l-0.74 -2.24 l-3.76 0 l-0.7 -1 l4.16 0 l-1.46 -4.46 l0.52 -1.54 l3.08 9.24 l-1.1 0 z M92.30000000000001 19.5 l-1.06 0 l1.06 -3 l0.64 1 z M110.74000000000001 19.5 l-5.76 -10.26 l0 10.26 l-1 0 l0 -14 l7.9 14 l-1.14 0 z M112.48 19.5 l-7.9 -14 l1.14 0 l5.76 10.26 l0 -10.26 l1 0 l0 14 z M109.98 5.5 l1 0 l0 8.3 l-1 -1.74 l0 -6.56 z M106.48 19.5 l-1 0 l0 -8.34 l1 1.74 l0 6.6 z M115.92 19.5 l4.66 -14 l1.04 0 l-3.04 9.26 l3.44 0 l0.36 1 l-4.14 0 l-1.26 3.74 l-1.06 0 z M125.74000000000001 19.5 l-3.6 -10.8 l-1.86 5.56 l-1.06 0 l2.96 -8.76 l4.6 14 l-1.04 0 z M124.12 19.5 l-0.74 -2.24 l-3.76 0 l-0.7 -1 l4.16 0 l-1.46 -4.46 l0.52 -1.54 l3.08 9.24 l-1.1 0 z M118.54 19.5 l-1.06 0 l1.06 -3 l0.64 1 z M129.72 10.26 c0 -3 1.8 -5 4.5 -5 s4.5 2 4.5 5 l-1 0 c0 -2.4 -1.4 -4.02 -3.5 -4.02 s-3.5 1.62 -3.5 4.02 l0 4.5 c0 2.4 1.4 4 3.5 4 c0.96 0 1.74 -0.36 2.34 -0.96 l0.76 0.74 c-0.8 0.76 -1.84 1.2 -3.1 1.2 c-2.7 0 -4.5 -1.98 -4.5 -4.98 l0 -4.5 z M134.22 7.74 c-0.5 0 -0.9 0.16 -1.26 0.46 l-0.74 -0.7 c0.56 -0.5 1.2 -0.74 2 -0.74 c1.8 0 3 1.4 3 3.5 l-1 0 c0 -1.5 -0.8 -2.52 -2 -2.52 z M134.22 17.259999999999998 c1.2 0 2 -1 2 -2.5 l0 -1.26 l-2 0 l0 -1 l3 0 l0 2.26 c0 2.1 -1.2 3.48 -3 3.48 s-3 -1.38 -3 -3.48 l0 -4.5 c0 -0.96 0.24 -1.76 0.7 -2.36 l0.7 0.7 c-0.26 0.46 -0.4 1 -0.4 1.66 l0 4.5 c0 1.5 0.8 2.5 2 2.5 z M138.72 14.76 c0 1.38 -0.4 2.54 -1.06 3.4 l-0.74 -0.7 c0.5 -0.72 0.8 -1.62 0.8 -2.7 l0 -2.26 l1 0 l0 2.26 z M134.22 15 l0 -1 l1.5 0 l0 1 l-1.5 0 z M149.72 11.5 l0 1 l-5.5 0 l0 4.5 l6.5 0 l0 1 l-7.5 0 l0 -12.5 l7.5 0 l0 1 l-6.5 0 l0 5 l5.5 0 z M150.72 8 l-4.6 0 l-1.06 -1 l5.66 0 l0 1 z M144.72 7.359999999999999 l1 0.98 l0 2.66 l-1 0 l0 -3.64 z M149.72 14 l-3.6 0 l-1.06 -1 l4.66 0 l0 1 z M144.72 13.36 l1 0.98 l0 2.16 l-1 0 l0 -3.14 z M150.72 19.5 l-7.5 0 l0 -1 l7.5 0 l0 1 z M160.35999999999999 16.66 l-4.14 -7.42 l0 10.26 l-1 0 l0 -14 l6.3 11.16 l-1.16 0 z M166.72 19.5 l-1 0 l0 -10.26 l-3.9 6.9 l-6 -10.64 l1.14 0 l4.86 8.66 l4.9 -8.66 l0 14 z M164.98 5.5 l1.14 0 l-4.3 7.6 l-0.56 -0.94 z M157.72 19.5 l-1 0 l0 -8.34 l1 1.74 l0 6.6 z M164.22 19.5 l0 -6.6 l1 -1.74 l0 8.34 l-1 0 z M178.22 11.5 l0 1 l-5.5 0 l0 4.5 l6.5 0 l0 1 l-7.5 0 l0 -12.5 l7.5 0 l0 1 l-6.5 0 l0 5 l5.5 0 z M179.22 8 l-4.6 0 l-1.06 -1 l5.66 0 l0 1 z M173.22 7.359999999999999 l1 0.98 l0 2.66 l-1 0 l0 -3.64 z M178.22 14 l-3.6 0 l-1.06 -1 l4.66 0 l0 1 z M173.22 13.36 l1 0.98 l0 2.16 l-1 0 l0 -3.14 z M179.22 19.5 l-7.5 0 l0 -1 l7.5 0 l0 1 z M190.48 19.5 l-5.76 -10.26 l0 10.26 l-1 0 l0 -14 l7.9 14 l-1.14 0 z M192.22 19.5 l-7.9 -14 l1.14 0 l5.76 10.26 l0 -10.26 l1 0 l0 14 z M189.72 5.5 l1 0 l0 8.3 l-1 -1.74 l0 -6.56 z M186.22 19.5 l-1 0 l0 -8.34 l1 1.74 l0 6.6 z M205.72 6.5 l-5 0 l0 13 l-1 0 l0 -13 l-3.5 0 l0 -1 l9.5 0 l0 1 z M199.22 8 l-3 0 l0 -1 l3 0 l0 1 z M205.72 8 l-3.16 0 l-0.98 -1 l4.14 0 l0 1 z M202.22 19.5 l-1 0 l0 -12.14 l1 1.04 l0 11.1 z">
        </path>
    </g>
    <g id="SvgjsG1009" featurekey="nameRightFeature-0"
        transform="matrix(0.943712863278971,0,0,0.943712863278971,273.14730207229184,6.52680169405377)" fill="#ffab00">
        <path
            d="M17.240000000000002 9.1 c0 -0.5 -0.44 -0.84 -0.98 -0.84 c-0.56 0 -1.02 0.34 -1.02 0.84 l0 0.26 c0 0.48 0.46 0.9 1.02 0.9 c2.7 0 4.74 2.1 4.74 4.9 l0 0.24 c0 2.54 -1.86 4.86 -4.74 4.86 c-2.7 0 -4.76 -2.1 -4.76 -4.86 l0 -0.5 l3.5 0 l0 0.5 c0 0.74 0.54 1.34 1.26 1.34 c0.68 0 1.24 -0.6 1.24 -1.34 l0 -0.24 c0 -0.82 -0.56 -1.42 -1.24 -1.42 c-2.56 0 -4.5 -1.88 -4.5 -4.38 l0 -0.26 c0 -2.5 1.94 -4.36 4.5 -4.36 c2.54 0 4.5 1.86 4.5 4.36 l0 0.5 l-3.52 0 l0 -0.5 z M13.5 15.4 c0 1.6 1.2 2.84 2.76 2.84 c1.54 0 2.74 -1.24 2.74 -2.84 l0 -0.24 c0 -1.66 -1.2 -2.92 -2.74 -2.92 c-1.72 0 -3 -1.24 -3 -2.88 l0 -0.26 c0 -1.6 1.28 -2.86 3 -2.86 c1.68 0 3 1.26 3 2.86 l0.98 0 c0 -2.2 -1.7 -3.84 -3.98 -3.84 c-2.32 0 -4.02 1.64 -4.02 3.84 l0 0.26 c0 2.2 1.7 3.9 4.02 3.9 c0.98 0 1.74 0.78 1.74 1.9 l0 0.24 c0 1.04 -0.76 1.86 -1.74 1.86 c-1.02 0 -1.76 -0.82 -1.76 -1.86 l-1 0 z M16.259999999999998 7.74 c0.84 0 1.5 0.6 1.5 1.36 l0.98 0 c0 -1.36 -1.1 -2.34 -2.48 -2.34 c-0.56 0 -1.26 0.24 -1.66 0.54 l0.76 0.7 c0.18 -0.14 0.54 -0.26 0.9 -0.26 z M14.76 9.1 c0 -0.16 0.08 -0.46 0.24 -0.7 l-0.76 -0.74 c-0.3 0.34 -0.5 0.98 -0.5 1.44 l0 0.26 c0 1.34 1.1 2.4 2.52 2.4 c1.84 0 3.24 1.44 3.24 3.4 l0 0.24 c0 0.66 -0.4 1.64 -0.9 2.3 l0.74 0.7 c0.66 -0.8 1.16 -1.84 1.16 -3 l0 -0.24 c0 -2.5 -1.84 -4.42 -4.24 -4.42 c-0.86 0 -1.5 -0.6 -1.5 -1.38 l0 -0.26 z M12 15.4 c0 2.5 1.86 4.34 4.26 4.34 c0.94 0 2.1 -0.38 2.74 -0.94 l-0.76 -0.74 c-0.44 0.4 -1.3 0.7 -1.98 0.7 c-1.86 0 -3.26 -1.46 -3.26 -3.36 l-1 0 z M22.76 5 l3.98 0 l2.26 3.94 l2.24 -3.94 l4 0 l-4.6 8.1 l0 6.9 l-3.5 0 l0 -7.24 z M24.740000000000002 5.5 l-1.14 0 l4.04 7.16 l0 6.84 l1 0 l0 -6.84 l4.02 -7.16 l-1.16 0 l-3.4 5.96 z M25.34 5.5 l2.76 4.94 l0.6 -1.04 l-2.2 -3.9 l-1.16 0 z M29.14 19.5 l1 0 l0 -6.5 l4.26 -7.5 l-1.14 0 l-4.12 7.26 l0 6.74 z M42.74 9.1 c0 -0.5 -0.44 -0.84 -0.98 -0.84 c-0.56 0 -1.02 0.34 -1.02 0.84 l0 0.26 c0 0.48 0.46 0.9 1.02 0.9 c2.7 0 4.74 2.1 4.74 4.9 l0 0.24 c0 2.54 -1.86 4.86 -4.74 4.86 c-2.7 0 -4.76 -2.1 -4.76 -4.86 l0 -0.5 l3.5 0 l0 0.5 c0 0.74 0.54 1.34 1.26 1.34 c0.68 0 1.24 -0.6 1.24 -1.34 l0 -0.24 c0 -0.82 -0.56 -1.42 -1.24 -1.42 c-2.56 0 -4.5 -1.88 -4.5 -4.38 l0 -0.26 c0 -2.5 1.94 -4.36 4.5 -4.36 c2.54 0 4.5 1.86 4.5 4.36 l0 0.5 l-3.52 0 l0 -0.5 z M39 15.4 c0 1.6 1.2 2.84 2.76 2.84 c1.54 0 2.74 -1.24 2.74 -2.84 l0 -0.24 c0 -1.66 -1.2 -2.92 -2.74 -2.92 c-1.72 0 -3 -1.24 -3 -2.88 l0 -0.26 c0 -1.6 1.28 -2.86 3 -2.86 c1.68 0 3 1.26 3 2.86 l0.98 0 c0 -2.2 -1.7 -3.84 -3.98 -3.84 c-2.32 0 -4.02 1.64 -4.02 3.84 l0 0.26 c0 2.2 1.7 3.9 4.02 3.9 c0.98 0 1.74 0.78 1.74 1.9 l0 0.24 c0 1.04 -0.76 1.86 -1.74 1.86 c-1.02 0 -1.76 -0.82 -1.76 -1.86 l-1 0 z M41.76 7.74 c0.84 0 1.5 0.6 1.5 1.36 l0.98 0 c0 -1.36 -1.1 -2.34 -2.48 -2.34 c-0.56 0 -1.26 0.24 -1.66 0.54 l0.76 0.7 c0.18 -0.14 0.54 -0.26 0.9 -0.26 z M40.26 9.1 c0 -0.16 0.08 -0.46 0.24 -0.7 l-0.76 -0.74 c-0.3 0.34 -0.5 0.98 -0.5 1.44 l0 0.26 c0 1.34 1.1 2.4 2.52 2.4 c1.84 0 3.24 1.44 3.24 3.4 l0 0.24 c0 0.66 -0.4 1.64 -0.9 2.3 l0.74 0.7 c0.66 -0.8 1.16 -1.84 1.16 -3 l0 -0.24 c0 -2.5 -1.84 -4.42 -4.24 -4.42 c-0.86 0 -1.5 -0.6 -1.5 -1.38 l0 -0.26 z M37.5 15.4 c0 2.5 1.86 4.34 4.26 4.34 c0.94 0 2.1 -0.38 2.74 -0.94 l-0.76 -0.74 c-0.44 0.4 -1.3 0.7 -1.98 0.7 c-1.86 0 -3.26 -1.46 -3.26 -3.36 l-1 0 z M52.5 20 l0 -11.5 l-3.5 0 l0 -3.5 l10.5 0 l0 3.5 l-3.5 0 l0 11.5 l-3.5 0 z M53 19.5 l1 0 l0 -13 l5 0 l0 -1 l-9.5 0 l0 1 l3.5 0 l0 13 z M52.5 7 l-3 0 l0 1 l3 0 l0 -1 z M59 7 l-4.14 0 l0.98 1 l3.16 0 l0 -1 z M55.5 8.4 l-1 -1.04 l0 12.14 l1 0 l0 -11.1 z M66 14.5 l0 2 l5 0 l0 3.5 l-8.5 0 l0 -15 l8.5 0 l0 3.5 l-5 0 l0 2.5 l4 0 l0 3.5 l-4 0 z M63 5.5 l0 12.5 l7.5 0 l0 -1 l-6.5 0 l0 -4.5 l5.5 0 l0 -1 l-5.5 0 l0 -5 l6.5 0 l0 -1 l-7.5 0 z M70.5 7 l-5.66 0 l1.06 1 l4.6 0 l0 -1 z M64.5 11 l1 0 l0 -2.66 l-1 -0.98 l0 3.64 z M69.5 13 l-4.66 0 l1.06 1 l3.6 0 l0 -1 z M64.5 16.5 l1 0 l0 -2.16 l-1 -0.98 l0 3.14 z M70.5 18.5 l-7.5 0 l0 1 l7.5 0 l0 -1 z M81.6 17.16 l-1.7 0 l-1.9 -3.36 l0 6.2 l-3.5 0 l0 -15 l2.5 0 l3.74 6.64 l3.76 -6.64 l2.5 0 l0 15 l-3.5 0 l0 -6.2 z M76 9.24 l4.14 7.42 l1.16 0 l-6.3 -11.16 l0 14 l1 0 l0 -10.26 z M81.6 16.14 l3.9 -6.9 l0 10.26 l1 0 l0 -14 l-4.9 8.66 l-4.86 -8.66 l-1.14 0 z M81.03999999999999 12.16 l0.56 0.94 l4.3 -7.6 l-1.14 0 z M77.5 12.9 l-1 -1.74 l0 8.34 l1 0 l0 -6.6 z M85 19.5 l0 -8.34 l-1 1.74 l0 6.6 l1 0 z">
        </path>
    </g>
</svg>