<svg xmlns="http://www.w3.org/2000/svg" transform="scale(2.5)" xmlns:xlink="http://www.w3.org/1999/xlink" version="1.1"
    width="174" height="70" viewBox="0 0 1000 1000" xml:space="preserve">
    <rect x="0" y="0" width="174" height="70" fill="rgba(255,255,255,0)" />
    <g transform="matrix(3.9369 0 0 3.9369 499.9952 499.9986)" id="317177">
        <g style="" vector-effect="non-scaling-stroke">
            <g transform="matrix(0.5204 0 0 0.5204 -91.7153 0.0003)" id="SvgjsG1007">
                <path
                    style="stroke: none; stroke-width: 1; stroke-dasharray: none; stroke-linecap: butt; stroke-dashoffset: 0; stroke-linejoin: miter; stroke-miterlimit: 4; is-custom-font: none; font-file-url: none; fill: rgb(0,171,85); fill-rule: nonzero; opacity: 1;"
                    transform=" translate(-87.4702, -99.9992)"
                    d="M 94.532 112.865 c -0.539 -0.227 -1.052 -0.496 -1.554 -0.785 c -1.057 -0.609 -2.037 -1.341 -2.912 -2.212 c -1.289 -1.284 -2.301 -2.777 -3.006 -4.44 c -0.729 -1.717 -1.1 -3.543 -1.1 -5.428 s 0.37 -3.711 1.101 -5.43 c 0.704 -1.661 1.716 -3.154 3.005 -4.438 c 0.876 -0.872 1.855 -1.605 2.912 -2.213 c 0.501 -0.289 1.014 -0.558 1.552 -0.784 c 2.035 -0.856 2.992 -3.202 2.135 -5.238 c -0.855 -2.036 -3.199 -2.995 -5.238 -2.135 c -2.624 1.104 -4.98 2.686 -7.005 4.702 c -2.025 2.017 -3.615 4.365 -4.725 6.98 c -1.152 2.712 -1.736 5.591 -1.736 8.556 s 0.584 5.844 1.735 8.555 c 1.11 2.616 2.7 4.965 4.726 6.981 c 2.022 2.014 4.379 3.596 7.004 4.702 c 0.507 0.213 1.033 0.314 1.551 0.314 c 1.562 0 3.044 -0.919 3.688 -2.448 C 97.522 116.068 96.567 113.723 94.532 112.865 z"
                    stroke-linecap="round" />
            </g>
            <g transform="matrix(0.5204 0 0 0.5204 -78.6756 0.001)" id="SvgjsG1007">
                <path
                    style="stroke: none; stroke-width: 1; stroke-dasharray: none; stroke-linecap: butt; stroke-dashoffset: 0; stroke-linejoin: miter; stroke-miterlimit: 4; is-custom-font: none; font-file-url: none; fill: rgb(0,171,85); fill-rule: nonzero; opacity: 1;"
                    transform=" translate(-112.5294, -100.0006)"
                    d="M 115.579 84.465 c -2.021 -2.015 -4.379 -3.598 -7.008 -4.703 c -2.031 -0.856 -4.381 0.1 -5.238 2.135 c -0.855 2.036 0.1 4.382 2.137 5.238 c 0.538 0.226 1.051 0.495 1.552 0.784 c 1.057 0.608 2.037 1.342 2.911 2.214 c 1.289 1.282 2.301 2.776 3.008 4.438 c 0.729 1.717 1.098 3.544 1.098 5.43 s -0.369 3.713 -1.098 5.427 c -0.707 1.664 -1.719 3.158 -3.01 4.442 c -0.872 0.87 -1.851 1.603 -2.909 2.212 c -0.501 0.288 -1.015 0.558 -1.554 0.784 c -2.035 0.857 -2.99 3.203 -2.133 5.239 c 0.643 1.529 2.127 2.448 3.688 2.448 c 0.518 0 1.045 -0.102 1.551 -0.314 c 2.629 -1.108 4.986 -2.69 7.004 -4.701 c 2.021 -2.013 3.613 -4.361 4.727 -6.982 c 1.15 -2.711 1.734 -5.589 1.734 -8.555 s -0.584 -5.844 -1.734 -8.558 C 119.19 88.824 117.599 86.476 115.579 84.465 z"
                    stroke-linecap="round" />
            </g>
            <g transform="matrix(0.5204 0 0 0.5204 -85.1937 0.0029)" id="SvgjsG1007">
                <path
                    style="stroke: none; stroke-width: 1; stroke-dasharray: none; stroke-linecap: butt; stroke-dashoffset: 0; stroke-linejoin: miter; stroke-miterlimit: 4; is-custom-font: none; font-file-url: none; fill: rgb(0,171,85); fill-rule: nonzero; opacity: 1;"
                    transform=" translate(-99.999, -100.0005)"
                    d="M 146.647 110.11 V 89.89 c 2.472 -0.678 4.742 -1.972 6.605 -3.827 c 2.838 -2.826 4.4 -6.585 4.4 -10.583 c 0 -3.997 -1.563 -7.755 -4.4 -10.584 c -2.834 -2.821 -6.6 -4.375 -10.605 -4.375 c -3.965 0 -7.694 1.528 -10.518 4.298 l -17.612 -10.126 c 0.31 -1.207 0.487 -2.455 0.487 -3.733 c 0 -3.997 -1.563 -7.755 -4.4 -10.584 c -2.834 -2.821 -6.6 -4.375 -10.605 -4.375 c -4.004 0 -7.77 1.554 -10.604 4.376 c -2.837 2.826 -4.399 6.585 -4.399 10.583 c 0 1.278 0.177 2.526 0.486 3.733 L 67.87 64.818 c -2.824 -2.769 -6.552 -4.297 -10.518 -4.297 c -4.005 0 -7.771 1.554 -10.604 4.375 c -2.838 2.826 -4.401 6.585 -4.401 10.584 c 0 4.001 1.563 7.76 4.4 10.583 c 1.862 1.855 4.133 3.149 6.604 3.827 v 20.22 c -2.472 0.678 -4.741 1.971 -6.604 3.825 c -2.838 2.826 -4.401 6.585 -4.401 10.585 c 0 3.999 1.563 7.758 4.4 10.583 c 2.833 2.822 6.6 4.376 10.604 4.376 c 3.965 0 7.693 -1.527 10.518 -4.297 l 17.612 10.126 c -0.31 1.206 -0.486 2.455 -0.486 3.733 c 0 3.998 1.563 7.757 4.4 10.584 c 2.834 2.821 6.6 4.375 10.604 4.375 c 4.006 0 7.771 -1.554 10.607 -4.377 c 2.836 -2.827 4.398 -6.585 4.398 -10.582 c 0 -1.278 -0.177 -2.527 -0.487 -3.733 l 17.612 -10.126 c 2.824 2.77 6.553 4.298 10.518 4.298 c 4.006 0 7.773 -1.555 10.604 -4.375 c 2.838 -2.827 4.402 -6.585 4.402 -10.584 s -1.564 -7.758 -4.402 -10.584 C 151.389 112.082 149.12 110.788 146.647 110.11 z M 147.604 129.437 c -2.643 2.635 -7.266 2.637 -9.916 -0.002 c -1.318 -1.313 -2.045 -3.058 -2.045 -4.914 s 0.727 -3.603 2.045 -4.915 c 1.324 -1.318 3.086 -2.044 4.959 -2.044 c 1.875 0 3.637 0.726 4.959 2.044 c 1.32 1.313 2.047 3.06 2.047 4.915 S 148.927 128.121 147.604 129.437 z M 95.04 153.956 c -1.318 -1.313 -2.045 -3.06 -2.045 -4.915 c 0 -1.856 0.727 -3.603 2.045 -4.915 c 1.324 -1.318 3.086 -2.045 4.959 -2.045 c 1.875 0 3.637 0.727 4.959 2.043 c 1.32 1.315 2.047 3.062 2.047 4.917 c 0 1.854 -0.727 3.601 -2.045 4.914 C 102.315 156.591 97.69 156.594 95.04 153.956 z M 99.999 134.081 c -3.963 0 -7.691 1.528 -10.518 4.298 L 71.87 128.254 c 0.31 -1.207 0.487 -2.455 0.487 -3.733 c 0 -3.999 -1.563 -7.758 -4.401 -10.585 c -1.863 -1.854 -4.132 -3.147 -6.604 -3.825 V 89.89 c 2.472 -0.678 4.741 -1.972 6.604 -3.826 c 2.838 -2.825 4.4 -6.584 4.4 -10.584 c 0 -1.278 -0.177 -2.526 -0.487 -3.733 L 89.481 61.62 c 2.824 2.769 6.552 4.297 10.518 4.297 c 3.964 0 7.692 -1.528 10.52 -4.297 l 17.611 10.125 c -0.31 1.206 -0.486 2.455 -0.486 3.733 c 0 4.001 1.563 7.76 4.4 10.584 c 1.863 1.854 4.132 3.148 6.604 3.826 v 20.221 c -2.47 0.678 -4.74 1.971 -6.604 3.825 c -2.838 2.825 -4.4 6.585 -4.4 10.585 c 0 1.278 0.177 2.526 0.486 3.733 l -17.611 10.125 C 107.692 135.609 103.964 134.081 99.999 134.081 z M 52.393 129.435 c -1.319 -1.313 -2.046 -3.059 -2.046 -4.914 c 0 -1.856 0.727 -3.602 2.046 -4.915 c 1.323 -1.318 3.085 -2.044 4.959 -2.044 s 3.636 0.726 4.959 2.043 c 1.319 1.313 2.046 3.06 2.046 4.916 c 0 1.855 -0.727 3.602 -2.045 4.914 C 59.663 132.071 55.041 132.073 52.393 129.435 z M 50.347 75.479 c 0 -1.855 0.727 -3.601 2.047 -4.915 c 1.323 -1.318 3.084 -2.044 4.958 -2.044 s 3.636 0.727 4.959 2.044 c 1.319 1.313 2.046 3.06 2.046 4.915 c 0 1.856 -0.727 3.602 -2.045 4.914 c -2.648 2.637 -7.27 2.639 -9.92 0 C 51.073 79.081 50.347 77.336 50.347 75.479 z M 99.999 44 c 1.875 0 3.637 0.727 4.959 2.043 c 1.32 1.315 2.047 3.062 2.047 4.916 c 0 1.855 -0.727 3.602 -2.045 4.915 c -2.645 2.637 -7.27 2.638 -9.92 0.001 c -1.318 -1.313 -2.045 -3.06 -2.045 -4.916 c 0 -1.855 0.727 -3.602 2.045 -4.914 C 96.364 44.727 98.126 44 99.999 44 z M 142.647 68.521 c 1.875 0 3.637 0.727 4.959 2.043 c 1.32 1.315 2.047 3.062 2.047 4.916 c 0 1.855 -0.727 3.602 -2.045 4.914 c -2.646 2.637 -7.27 2.639 -9.92 0 c -1.318 -1.313 -2.045 -3.058 -2.045 -4.914 s 0.727 -3.602 2.045 -4.914 C 139.013 69.247 140.774 68.521 142.647 68.521 z"
                    stroke-linecap="round" />
            </g>
            <g transform="matrix(1.3056 0 0 1.3056 39.8026 -7.9979)" id="SvgjsG1008">
                <path
                    style="stroke: none; stroke-width: 1; stroke-dasharray: none; stroke-linecap: butt; stroke-dashoffset: 0; stroke-linejoin: miter; stroke-miterlimit: 4; is-custom-font: none; font-file-url: none; fill: rgb(123,31,162); fill-rule: nonzero; opacity: 1;"
                    transform=" translate(-57.444, -25.98)"
                    d="M 19.76 30.64 l 1.8 -3.12 l 5.44 9.36 l 3.6 0 c -0.8 -1.28 -8.4 -14.28 -9.04 -15.56 l -7.84 13.6 l -2.92 5.08 l -10.8 0 c 0.6 -1 4.64 -8.04 8.52 -14.8 c 2.28 -3.96 4.8 -8.4 7.64 -13.24 l 3.6 0 l -7.44 12.88 l -6.92 12.04 l 3.6 0 c 4.92 -8.68 8 -13.8 12.56 -21.8 c 0.28 0.48 14.36 24.88 14.44 24.92 l -10.8 0 z M 58.644000000000005 27.84 l 8.96 -15.88 l 9.92 0 l 0 28.04 l -9.36 0 l 0 -10.48 l -5.96 10.48 l -7.16 0 l -9.08 -15.92 l 0 -5.88 l 10.92 18.68 l 3.52 0 l 10.88 -18.68 l 0 18.68 l 3.12 0 l 0 -21.8 l -5 0 l -10.84 18.72 l -10.68 -18.72 l -5 0 l 0 21.8 l 3.08 0 l 0 -5.88 l 3.12 5.36 l 0 3.64 l -9.32 0 l 0 -28.04 l 9.92 0 z M 107.688 27.560000000000002 c -15.88 0 -16.12 -0.04 -16.32 -0.04 l -0.08 0 c -4 -0.32 -7.08 -3.72 -7.08 -7.76 c 0 -4.32 3.48 -7.8 7.8 -7.8 l 16.8 0 c 3.36 0 6.08 2.72 6.08 6.12 l 0 3.24 l -22.76 0 l -0.04 0 l -0.04 0 c -0.92 -0.04 -1.52 -0.72 -1.52 -1.56 s 0.64 -1.52 1.48 -1.56 l 19.76 0 l 0 -0.08 c 0 -1.72 -1.32 -3.04 -3.04 -3.04 l -16.72 0 c -2.56 0 -4.68 2.08 -4.68 4.68 c 0 2.4 1.8 4.32 4.08 4.64 c 15.96 0 16.12 0.04 16.4 0.04 c 4 0.32 7.08 3.76 7.08 7.76 c 0 4.32 -3.48 7.8 -7.76 7.8 l -16.84 0 c -3.36 0 -6.08 -2.72 -6.08 -6.08 l 0 -3.28 l 22.92 0 c 1.96 0.12 1.96 3 0 3.12 l -19.8 0 l 0 0.08 c 0 1.72 1.32 3.04 3.04 3.04 l 16.76 0 c 2.52 0 4.68 -2 4.68 -4.68 c 0 -2.4 -1.8 -4.32 -4.12 -4.64 z"
                    stroke-linecap="round" />
            </g>
            <g transform="matrix(0.4028 0 0 0.4028 39.8106 23.6183)" id="SvgjsG1009">
                <path
                    style="stroke: none; stroke-width: 1; stroke-dasharray: none; stroke-linecap: butt; stroke-dashoffset: 0; stroke-linejoin: miter; stroke-miterlimit: 4; is-custom-font: none; font-file-url: none; fill: rgb(17,17,17); fill-rule: nonzero; opacity: 1;"
                    transform=" translate(-149.2678, -12.9443)"
                    d="M 11.27 20 l -1.0254 -2.9102 l -5.9277 0 l -1.0254 2.9102 l -2.998 0 l 5.1953 -14.111 l 3.584 0 l 5.1953 14.111 l -2.998 0 z M 5.1758 14.6387 l 4.209 0 l -2.0996 -5.9863 z M 21.074246875 20.19531 c -3.0273 0 -5.3906 -1.4551 -5.8203 -4.1016 l 3.0273 -0.69336 c 0.19531 1.582 1.3574 2.4023 2.9102 2.4023 c 1.1914 0 2.1387 -0.52734 2.1289 -1.7188 c -0.0097656 -1.3281 -1.5723 -1.748 -3.291 -2.2754 c -2.0703 -0.64453 -4.2871 -1.4063 -4.2871 -4.0039 c 0 -2.627 2.1484 -4.1113 4.9805 -4.1113 c 2.4805 0 4.9805 1.0059 5.5469 3.7109 l -2.832 0.70313 c -0.26367 -1.4063 -1.2109 -2.0215 -2.5391 -2.0215 c -1.1816 0 -2.1875 0.48828 -2.1875 1.6504 c 0 1.084 1.3867 1.4453 2.9883 1.9238 c 2.1289 0.64453 4.6484 1.4648 4.6484 4.2773 c 0 2.998 -2.5098 4.2578 -5.2734 4.2578 z M 33.7402625 20.19531 c -3.0273 0 -5.3906 -1.4551 -5.8203 -4.1016 l 3.0273 -0.69336 c 0.19531 1.582 1.3574 2.4023 2.9102 2.4023 c 1.1914 0 2.1387 -0.52734 2.1289 -1.7188 c -0.0097656 -1.3281 -1.5723 -1.748 -3.291 -2.2754 c -2.0703 -0.64453 -4.2871 -1.4063 -4.2871 -4.0039 c 0 -2.627 2.1484 -4.1113 4.9805 -4.1113 c 2.4805 0 4.9805 1.0059 5.5469 3.7109 l -2.832 0.70313 c -0.26367 -1.4063 -1.2109 -2.0215 -2.5391 -2.0215 c -1.1816 0 -2.1875 0.48828 -2.1875 1.6504 c 0 1.084 1.3867 1.4453 2.9883 1.9238 c 2.1289 0.64453 4.6484 1.4648 4.6484 4.2773 c 0 2.998 -2.5098 4.2578 -5.2734 4.2578 z M 49.902578125 8.467 l -5.2344 0 l 0 3.2031 l 4.6387 0 l 0 2.5488 l -4.6387 0 l 0 3.1934 l 5.2344 0 l 0 2.5879 l -8.1836 0 l 0 -14.111 l 8.1836 0 l 0 2.5781 z M 61.10375 5.888999999999999 l 0 2.5781 l -3.3496 0 l 0 11.533 l -2.9004 0 l 0 -11.533 l -3.3691 0 l 0 -2.5781 l 9.6191 0 z M 84.687453125 20 l -2.9199 0 l -0.92773 -10.635 l -3.5742 10.635 l -1.8945 0 l -3.5742 -10.635 l -0.9375 10.635 l -2.9297 0 l 1.1816 -14.111 l 4.1797 0 l 3.0078 8.8574 l 3.0469 -8.8574 l 4.1797 0 z M 97.197734375 20 l -1.0254 -2.9102 l -5.9277 0 l -1.0254 2.9102 l -2.998 0 l 5.1953 -14.111 l 3.584 0 l 5.1953 14.111 l -2.998 0 z M 91.103534375 14.6387 l 4.209 0 l -2.0996 -5.9863 z M 111.95328125 5.888999999999999 l 2.9199 0 l 0 14.111 l -3.3887 0 l -6.25 -10.088 l 0 10.088 l -2.9199 0 l 0 -14.111 l 3.3496 0 l 6.2891 10.029 l 0 -10.029 z M 127.96921875 20 l -1.0254 -2.9102 l -5.9277 0 l -1.0254 2.9102 l -2.998 0 l 5.1953 -14.111 l 3.584 0 l 5.1953 14.111 l -2.998 0 z M 121.87501875 14.6387 l 4.209 0 l -2.0996 -5.9863 z M 139.189465625 20.19531 c -4.0723 0 -7.0703 -2.8125 -7.0703 -7.2168 c 0 -4.4629 3.0664 -7.2852 7.2168 -7.2852 c 2.7246 0 4.9805 1.2012 6.2109 3.3203 l -2.5684 1.3672 c -0.74219 -1.4453 -2.0703 -2.1387 -3.6426 -2.1387 c -2.4414 0 -4.2773 1.6797 -4.2773 4.668 c 0 2.8809 1.7188 4.7363 4.3848 4.7363 c 1.8066 0 3.4668 -0.89844 3.8672 -2.959 l -3.8574 0 l 0 -2.3535 l 6.6309 0 l 0 7.666 l -2.3047 0 l 0 -1.9531 c -0.9082 1.3379 -2.4316 2.1484 -4.5898 2.1484 z M 157.304921875 8.467 l -5.2344 0 l 0 3.2031 l 4.6387 0 l 0 2.5488 l -4.6387 0 l 0 3.1934 l 5.2344 0 l 0 2.5879 l -8.1836 0 l 0 -14.111 l 8.1836 0 l 0 2.5781 z M 176.49409375 20 l -2.9199 0 l -0.92773 -10.635 l -3.5742 10.635 l -1.8945 0 l -3.5742 -10.635 l -0.9375 10.635 l -2.9297 0 l 1.1816 -14.111 l 4.1797 0 l 3.0078 8.8574 l 3.0469 -8.8574 l 4.1797 0 z M 187.744375 8.467 l -5.2344 0 l 0 3.2031 l 4.6387 0 l 0 2.5488 l -4.6387 0 l 0 3.1934 l 5.2344 0 l 0 2.5879 l -8.1836 0 l 0 -14.111 l 8.1836 0 l 0 2.5781 z M 200.400546875 5.888999999999999 l 2.9199 0 l 0 14.111 l -3.3887 0 l -6.25 -10.088 l 0 10.088 l -2.9199 0 l 0 -14.111 l 3.3496 0 l 6.2891 10.029 l 0 -10.029 z M 215.156484375 5.888999999999999 l 0 2.5781 l -3.3496 0 l 0 11.533 l -2.9004 0 l 0 -11.533 l -3.3691 0 l 0 -2.5781 l 9.6191 0 z M 227.2558875 20.19531 c -3.0273 0 -5.3906 -1.4551 -5.8203 -4.1016 l 3.0273 -0.69336 c 0.19531 1.582 1.3574 2.4023 2.9102 2.4023 c 1.1914 0 2.1387 -0.52734 2.1289 -1.7188 c -0.0097656 -1.3281 -1.5723 -1.748 -3.291 -2.2754 c -2.0703 -0.64453 -4.2871 -1.4063 -4.2871 -4.0039 c 0 -2.627 2.1484 -4.1113 4.9805 -4.1113 c 2.4805 0 4.9805 1.0059 5.5469 3.7109 l -2.832 0.70313 c -0.26367 -1.4063 -1.2109 -2.0215 -2.5391 -2.0215 c -1.1816 0 -2.1875 0.48828 -2.1875 1.6504 c 0 1.084 1.3867 1.4453 2.9883 1.9238 c 2.1289 0.64453 4.6484 1.4648 4.6484 4.2773 c 0 2.998 -2.5098 4.2578 -5.2734 4.2578 z M 245.820203125 5.888999999999999 l -4.6387 7.3535 l 0 6.7578 l -2.9395 0 l 0 -6.6895 l -4.668 -7.4219 l 3.2422 0 l 2.8809 4.8047 l 2.8906 -4.8047 l 3.2324 0 z M 252.4902625 20.19531 c -3.0273 0 -5.3906 -1.4551 -5.8203 -4.1016 l 3.0273 -0.69336 c 0.19531 1.582 1.3574 2.4023 2.9102 2.4023 c 1.1914 0 2.1387 -0.52734 2.1289 -1.7188 c -0.0097656 -1.3281 -1.5723 -1.748 -3.291 -2.2754 c -2.0703 -0.64453 -4.2871 -1.4063 -4.2871 -4.0039 c 0 -2.627 2.1484 -4.1113 4.9805 -4.1113 c 2.4805 0 4.9805 1.0059 5.5469 3.7109 l -2.832 0.70313 c -0.26367 -1.4063 -1.2109 -2.0215 -2.5391 -2.0215 c -1.1816 0 -2.1875 0.48828 -2.1875 1.6504 c 0 1.084 1.3867 1.4453 2.9883 1.9238 c 2.1289 0.64453 4.6484 1.4648 4.6484 4.2773 c 0 2.998 -2.5098 4.2578 -5.2734 4.2578 z M 268.652578125 5.888999999999999 l 0 2.5781 l -3.3496 0 l 0 11.533 l -2.9004 0 l 0 -11.533 l -3.3691 0 l 0 -2.5781 l 9.6191 0 z M 279.05296875 8.467 l -5.2344 0 l 0 3.2031 l 4.6387 0 l 0 2.5488 l -4.6387 0 l 0 3.1934 l 5.2344 0 l 0 2.5879 l -8.1836 0 l 0 -14.111 l 8.1836 0 l 0 2.5781 z M 298.242140625 20 l -2.9199 0 l -0.92773 -10.635 l -3.5742 10.635 l -1.8945 0 l -3.5742 -10.635 l -0.9375 10.635 l -2.9297 0 l 1.1816 -14.111 l 4.1797 0 l 3.0078 8.8574 l 3.0469 -8.8574 l 4.1797 0 z"
                    stroke-linecap="round" />
            </g>
        </g>
    </g>
</svg>